<svg width="530" height="300" viewBox="0 0 530 300" fill="none" xmlns="http://www.w3.org/2000/svg">
<path d="M27.6465 225.882C27.6465 222.634 30.2801 220 33.5288 220H120.588C123.836 220 126.47 222.634 126.47 225.882V267.059C126.47 270.308 123.836 272.941 120.588 272.941H33.5288C30.2801 272.941 27.6465 270.308 27.6465 267.059V225.882Z" stroke="black" stroke-width="1.17647" stroke-linejoin="round"/>
<path d="M192.354 208.235C192.354 204.987 189.72 202.353 186.471 202.353H51.1773C47.9285 202.353 45.2949 204.987 45.2949 208.235V249.412C45.2949 252.661 47.9285 255.294 51.1772 255.294H174.706L192.354 237.647V208.235Z" fill="#222222" stroke="#222222" stroke-width="1.17647" stroke-linejoin="round"/>
<path d="M174.706 237.647H192.354L174.706 255.294V237.647Z" fill="url(#paint0_linear_126_4)" stroke="#222222" stroke-width="1.17647" stroke-linejoin="round"/>
<path d="M57.0576 221.053L71.5467 211.765L86.0358 221.053L71.5467 230.341L57.0576 221.053Z" fill="white" stroke="#3959FF" stroke-width="1.17647" stroke-linejoin="round"/>
<path d="M71.5467 247.059L57.0576 238.279V221.053L71.5467 229.833V247.059Z" fill="#F2F2F2" stroke="#3959FF" stroke-width="1.17647" stroke-linejoin="round"/>
<path d="M71.5469 247.059L86.036 238.279V221.053L71.5469 229.833V247.059Z" fill="white" stroke="#3959FF" stroke-width="1.17647" stroke-linejoin="round"/>
<path d="M97.8018 221.053L112.291 211.765L126.78 221.053L112.291 230.341L97.8018 221.053Z" fill="white" stroke="#3959FF" stroke-width="1.17647" stroke-linejoin="round"/>
<path d="M112.291 247.059L97.8018 238.279V221.053L112.291 229.833V247.059Z" fill="#F2F2F2" stroke="#3959FF" stroke-width="1.17647" stroke-linejoin="round"/>
<path d="M112.291 247.059L126.78 238.279V221.053L112.291 229.833V247.059Z" fill="white" stroke="#3959FF" stroke-width="1.17647" stroke-linejoin="round"/>
<path d="M138.544 221.053L153.033 211.765L167.522 221.053L153.033 230.341L138.544 221.053Z" fill="white" stroke="#3959FF" stroke-width="1.17647" stroke-linejoin="round"/>
<path d="M153.033 247.059L138.544 238.279V221.053L153.033 229.833V247.059Z" fill="#F2F2F2" stroke="#3959FF" stroke-width="1.17647" stroke-linejoin="round"/>
<path d="M153.033 247.059L167.522 238.279V221.053L153.033 229.833V247.059Z" fill="url(#paint1_linear_126_4)" stroke="url(#paint2_linear_126_4)" stroke-width="1.17647" stroke-linejoin="round"/>
<path d="M192.353 272.941H157.059" stroke="black" stroke-width="2.35294" stroke-linecap="round" stroke-linejoin="round"/>
<path d="M244.321 268.503C245.419 270.859 248.219 271.878 250.575 270.779C252.93 269.681 253.949 266.881 252.851 264.525L251.503 261.634C252.301 260.888 253.019 260.072 253.651 259.201L256.71 260.314C259.152 261.203 261.852 259.944 262.741 257.502C263.63 255.059 262.371 252.359 259.929 251.47L256.87 250.357C256.946 249.284 256.92 248.197 256.788 247.112L259.68 245.764C262.035 244.666 263.054 241.866 261.956 239.51C260.857 237.155 258.057 236.136 255.702 237.234L253.116 238.44C252.353 237.495 251.499 236.645 250.573 235.898L251.491 233.376C252.38 230.933 251.121 228.233 248.678 227.344C246.236 226.455 243.536 227.714 242.647 230.156L241.892 232.231C240.542 232.067 239.166 232.064 237.792 232.231L236.941 230.406C235.842 228.05 233.042 227.031 230.687 228.129C228.331 229.228 227.312 232.028 228.411 234.383L229.119 235.903C227.943 236.853 226.914 237.944 226.048 239.138L224.552 238.594C222.11 237.705 219.409 238.964 218.52 241.407C217.632 243.849 218.891 246.549 221.333 247.438L222.829 247.983C222.725 249.455 222.811 250.952 223.102 252.436L221.582 253.145C219.227 254.243 218.208 257.043 219.306 259.398C220.404 261.754 223.204 262.773 225.56 261.674L227.385 260.823C228.33 261.835 229.387 262.717 230.526 263.458L229.771 265.533C228.882 267.975 230.141 270.676 232.583 271.565C235.026 272.454 237.726 271.194 238.615 268.752L239.533 266.23C240.722 266.252 241.923 266.151 243.115 265.917L244.321 268.503Z" fill="#F2F2F2" stroke="#808080" stroke-width="1.17647" stroke-linejoin="round"/>
<path d="M240 256.471C243.574 256.471 246.47 253.574 246.47 250C246.47 246.426 243.574 243.529 240 243.529C236.426 243.529 233.529 246.426 233.529 250C233.529 253.574 236.426 256.471 240 256.471Z" fill="white" stroke="#808080" stroke-width="1.17647" stroke-linejoin="round"/>
<path fill-rule="evenodd" clip-rule="evenodd" d="M281.766 250.588C281.766 253.187 283.873 255.294 286.472 255.294C289.071 255.294 291.178 253.187 291.178 250.588V247.398C292.217 247.059 293.212 246.623 294.153 246.1L296.454 248.402C298.292 250.24 301.272 250.24 303.11 248.402C304.947 246.564 304.947 243.585 303.11 241.747L300.808 239.445C301.33 238.505 301.766 237.509 302.105 236.47H305.295C307.894 236.47 310.001 234.364 310.001 231.765C310.001 229.166 307.894 227.059 305.295 227.059H302.442C302.149 225.879 301.734 224.748 301.211 223.68L303.109 221.782C304.947 219.944 304.947 216.965 303.109 215.127C301.271 213.289 298.292 213.289 296.454 215.127L294.893 216.688C293.739 215.969 292.494 215.384 291.178 214.955V212.941C291.178 210.342 289.071 208.235 286.472 208.235C283.873 208.235 281.766 210.342 281.766 212.941V214.618C280.298 214.982 278.905 215.536 277.614 216.252L276.489 215.127C274.651 213.289 271.672 213.289 269.834 215.127C267.996 216.964 267.996 219.944 269.834 221.782L270.959 222.907C270.243 224.197 269.688 225.591 269.325 227.059H267.648C265.049 227.059 262.942 229.166 262.942 231.765C262.942 234.364 265.049 236.47 267.648 236.47H269.662C270.091 237.787 270.676 239.032 271.395 240.186L269.834 241.747C267.996 243.585 267.996 246.565 269.834 248.402C271.671 250.24 274.651 250.24 276.489 248.402L278.387 246.504C279.455 247.028 280.586 247.443 281.766 247.735V250.588Z" fill="#F2F2F2"/>
<path d="M291.178 247.398L290.995 246.838C290.753 246.917 290.589 247.143 290.589 247.398H291.178ZM294.153 246.1L294.569 245.684C294.383 245.499 294.097 245.459 293.867 245.586L294.153 246.1ZM300.808 239.445L300.293 239.16C300.166 239.389 300.206 239.675 300.392 239.861L300.808 239.445ZM302.105 236.47V235.882C301.85 235.882 301.624 236.046 301.545 236.288L302.105 236.47ZM302.442 227.059L301.871 227.2C301.936 227.463 302.171 227.647 302.442 227.647V227.059ZM301.211 223.68L300.795 223.264C300.617 223.442 300.572 223.713 300.683 223.939L301.211 223.68ZM294.893 216.688L294.582 217.187C294.814 217.332 295.115 217.298 295.309 217.104L294.893 216.688ZM291.178 214.955H290.589C290.589 215.21 290.753 215.435 290.995 215.514L291.178 214.955ZM281.766 214.618L281.907 215.189C282.17 215.124 282.354 214.888 282.354 214.618H281.766ZM277.614 216.252L277.198 216.668C277.384 216.854 277.67 216.894 277.9 216.766L277.614 216.252ZM270.959 222.907L271.473 223.193C271.601 222.963 271.561 222.677 271.375 222.491L270.959 222.907ZM269.325 227.059V227.647C269.595 227.647 269.831 227.463 269.896 227.2L269.325 227.059ZM269.662 236.47L270.221 236.288C270.142 236.046 269.916 235.882 269.662 235.882V236.47ZM271.395 240.186L271.811 240.602C272.004 240.408 272.039 240.107 271.894 239.875L271.395 240.186ZM278.387 246.504L278.646 245.976C278.42 245.865 278.149 245.91 277.971 246.088L278.387 246.504ZM281.766 247.735H282.354C282.354 247.465 282.17 247.229 281.907 247.164L281.766 247.735ZM286.472 254.706C284.198 254.706 282.354 252.862 282.354 250.588H281.178C281.178 253.512 283.548 255.882 286.472 255.882V254.706ZM290.589 250.588C290.589 252.862 288.746 254.706 286.472 254.706V255.882C289.396 255.882 291.766 253.512 291.766 250.588H290.589ZM290.589 247.398V250.588H291.766V247.398H290.589ZM293.867 245.586C292.959 246.09 291.998 246.511 290.995 246.838L291.36 247.957C292.435 247.606 293.465 247.155 294.438 246.615L293.867 245.586ZM296.87 247.986L294.569 245.684L293.737 246.516L296.038 248.818L296.87 247.986ZM302.694 247.986C301.086 249.594 298.478 249.594 296.87 247.986L296.038 248.818C298.106 250.886 301.458 250.886 303.525 248.818L302.694 247.986ZM302.694 242.163C304.302 243.771 304.302 246.378 302.694 247.986L303.525 248.818C305.593 246.751 305.593 243.399 303.525 241.331L302.694 242.163ZM300.392 239.861L302.694 242.163L303.525 241.331L301.223 239.029L300.392 239.861ZM301.545 236.288C301.218 237.291 300.797 238.252 300.293 239.16L301.322 239.731C301.862 238.758 302.313 237.728 302.664 236.653L301.545 236.288ZM305.295 235.882H302.105V237.059H305.295V235.882ZM309.413 231.765C309.413 234.039 307.569 235.882 305.295 235.882V237.059C308.219 237.059 310.589 234.688 310.589 231.765H309.413ZM305.295 227.647C307.569 227.647 309.413 229.49 309.413 231.765H310.589C310.589 228.841 308.219 226.47 305.295 226.47V227.647ZM302.442 227.647H305.295V226.47H302.442V227.647ZM300.683 223.939C301.188 224.97 301.589 226.062 301.871 227.2L303.013 226.917C302.71 225.697 302.281 224.527 301.739 223.421L300.683 223.939ZM302.693 221.366L300.795 223.264L301.627 224.096L303.525 222.198L302.693 221.366ZM302.693 215.543C304.301 217.151 304.301 219.758 302.693 221.366L303.525 222.198C305.593 220.13 305.593 216.778 303.525 214.711L302.693 215.543ZM296.87 215.543C298.478 213.935 301.085 213.935 302.693 215.543L303.525 214.711C301.458 212.643 298.106 212.643 296.038 214.711L296.87 215.543ZM295.309 217.104L296.87 215.543L296.038 214.711L294.477 216.272L295.309 217.104ZM290.995 215.514C292.265 215.929 293.468 216.493 294.582 217.187L295.204 216.189C294.011 215.445 292.722 214.84 291.36 214.396L290.995 215.514ZM290.589 212.941V214.955H291.766V212.941H290.589ZM286.472 208.823C288.746 208.823 290.589 210.667 290.589 212.941H291.766C291.766 210.017 289.396 207.647 286.472 207.647V208.823ZM282.354 212.941C282.354 210.667 284.198 208.823 286.472 208.823V207.647C283.548 207.647 281.178 210.017 281.178 212.941H282.354ZM282.354 214.618V212.941H281.178V214.618H282.354ZM277.9 216.766C279.146 216.075 280.49 215.54 281.907 215.189L281.624 214.047C280.105 214.423 278.664 214.997 277.329 215.738L277.9 216.766ZM276.073 215.543L277.198 216.668L278.03 215.836L276.905 214.711L276.073 215.543ZM270.25 215.543C271.858 213.935 274.465 213.935 276.073 215.543L276.905 214.711C274.838 212.643 271.485 212.643 269.418 214.711L270.25 215.543ZM270.25 221.366C268.642 219.758 268.642 217.151 270.25 215.543L269.418 214.711C267.35 216.778 267.35 220.13 269.418 222.198L270.25 221.366ZM271.375 222.491L270.25 221.366L269.418 222.198L270.543 223.323L271.375 222.491ZM269.896 227.2C270.247 225.783 270.782 224.438 271.473 223.193L270.445 222.621C269.704 223.956 269.13 225.398 268.754 226.917L269.896 227.2ZM267.648 227.647H269.325V226.47H267.648V227.647ZM263.531 231.765C263.531 229.49 265.374 227.647 267.648 227.647V226.47C264.724 226.47 262.354 228.841 262.354 231.765H263.531ZM267.648 235.882C265.374 235.882 263.531 234.039 263.531 231.765H262.354C262.354 234.688 264.724 237.059 267.648 237.059V235.882ZM269.662 235.882H267.648V237.059H269.662V235.882ZM271.894 239.875C271.2 238.761 270.635 237.558 270.221 236.288L269.102 236.653C269.547 238.015 270.152 239.304 270.896 240.497L271.894 239.875ZM270.25 242.163L271.811 240.602L270.979 239.77L269.418 241.331L270.25 242.163ZM270.25 247.986C268.641 246.378 268.641 243.771 270.25 242.163L269.418 241.331C267.35 243.399 267.35 246.751 269.418 248.818L270.25 247.986ZM276.073 247.986C274.465 249.594 271.858 249.594 270.25 247.986L269.418 248.818C271.485 250.886 274.837 250.886 276.905 248.818L276.073 247.986ZM277.971 246.088L276.073 247.986L276.905 248.818L278.803 246.92L277.971 246.088ZM281.907 247.164C280.769 246.882 279.677 246.481 278.646 245.976L278.128 247.032C279.233 247.574 280.404 248.004 281.624 248.306L281.907 247.164ZM282.354 250.588V247.735H281.178V250.588H282.354Z" fill="#808080"/>
<path d="M285.883 237.647C289.457 237.647 292.354 234.75 292.354 231.176C292.354 227.602 289.457 224.705 285.883 224.705C282.31 224.705 279.413 227.602 279.413 231.176C279.413 234.75 282.31 237.647 285.883 237.647Z" fill="white" stroke="#808080" stroke-width="1.17647" stroke-linejoin="round"/>
<path d="M412.352 203.53H341.764C338.515 203.53 335.882 206.164 335.882 209.412V267.059C335.882 270.308 338.515 272.942 341.764 272.942H412.352C415.601 272.942 418.235 270.308 418.235 267.059V209.412C418.235 206.164 415.601 203.53 412.352 203.53Z" fill="#3959FF" stroke="#808080" stroke-width="1.17647" stroke-linejoin="round"/>
<path d="M412.354 221.177H341.766V267.059H412.354V221.177Z" fill="white" stroke="#808080" stroke-width="1.17647" stroke-linejoin="round"/>
<path fill-rule="evenodd" clip-rule="evenodd" d="M469.18 270.357L471.764 272.941L474.348 270.357H478.003V266.702L480.587 264.118L478.003 261.533V257.879H474.348L471.764 255.294L469.18 257.879H465.525V261.534L462.94 264.118L465.525 266.702V270.357H469.18Z" fill="#F2F2F2"/>
<path d="M471.764 272.941L471.348 273.357C471.458 273.468 471.608 273.53 471.764 273.53C471.92 273.53 472.07 273.468 472.18 273.357L471.764 272.941ZM469.18 270.357L469.596 269.941C469.485 269.831 469.336 269.769 469.18 269.769V270.357ZM474.348 270.357V269.769C474.192 269.769 474.043 269.831 473.932 269.941L474.348 270.357ZM478.003 270.357V270.945C478.328 270.945 478.591 270.682 478.591 270.357H478.003ZM478.003 266.702L477.587 266.286C477.477 266.397 477.415 266.546 477.415 266.702H478.003ZM480.587 264.118L481.003 264.534C481.233 264.304 481.233 263.932 481.003 263.702L480.587 264.118ZM478.003 261.533H477.415C477.415 261.689 477.477 261.839 477.587 261.949L478.003 261.533ZM478.003 257.879H478.591C478.591 257.723 478.529 257.573 478.419 257.463C478.309 257.353 478.159 257.291 478.003 257.291V257.879ZM474.348 257.879L473.932 258.295C474.043 258.405 474.192 258.467 474.348 258.467V257.879ZM471.764 255.294L472.18 254.878C471.95 254.649 471.578 254.649 471.348 254.878L471.764 255.294ZM469.18 257.879V258.467C469.336 258.467 469.485 258.405 469.595 258.295L469.18 257.879ZM465.525 257.879V257.291C465.369 257.291 465.219 257.353 465.109 257.463C464.998 257.573 464.936 257.723 464.936 257.879H465.525ZM465.525 261.534L465.941 261.95C466.051 261.839 466.113 261.69 466.113 261.534H465.525ZM462.94 264.118L462.524 263.702C462.414 263.812 462.352 263.962 462.352 264.118C462.352 264.274 462.414 264.424 462.524 264.534L462.94 264.118ZM465.525 266.702H466.113C466.113 266.546 466.051 266.397 465.941 266.286L465.525 266.702ZM465.525 270.357H464.936C464.936 270.682 465.2 270.945 465.525 270.945V270.357ZM472.18 272.525L469.596 269.941L468.764 270.773L471.348 273.357L472.18 272.525ZM473.932 269.941L471.348 272.525L472.18 273.357L474.764 270.773L473.932 269.941ZM478.003 269.769H474.348V270.945H478.003V269.769ZM477.415 266.702V270.357H478.591V266.702H477.415ZM480.172 263.702L477.587 266.286L478.419 267.118L481.003 264.534L480.172 263.702ZM477.587 261.949L480.172 264.534L481.003 263.702L478.419 261.118L477.587 261.949ZM477.415 257.879V261.533H478.591V257.879H477.415ZM474.348 258.467H478.003V257.291H474.348V258.467ZM471.348 255.71L473.932 258.295L474.764 257.463L472.18 254.878L471.348 255.71ZM469.595 258.295L472.18 255.71L471.348 254.878L468.764 257.463L469.595 258.295ZM465.525 258.467H469.18V257.291H465.525V258.467ZM466.113 261.534V257.879H464.936V261.534H466.113ZM463.356 264.534L465.941 261.95L465.109 261.118L462.524 263.702L463.356 264.534ZM465.941 266.286L463.356 263.702L462.524 264.534L465.109 267.118L465.941 266.286ZM466.113 270.357V266.702H464.936V270.357H466.113ZM469.18 269.769H465.525V270.945H469.18V269.769Z" fill="#808080"/>
<path fill-rule="evenodd" clip-rule="evenodd" d="M165.65 65.6511L168.235 68.2354L170.819 65.6511H174.474V61.9963L177.058 59.4118L174.474 56.8274V53.1727H170.819L168.235 50.5883L165.65 53.1727H161.995V56.8276L159.411 59.4118L161.995 61.9961V65.6511H165.65Z" fill="#F2F2F2"/>
<path d="M168.235 68.2354L167.819 68.6513C168.048 68.881 168.421 68.881 168.651 68.6513L168.235 68.2354ZM165.65 65.6511L166.066 65.2351C165.956 65.1248 165.806 65.0629 165.65 65.0629V65.6511ZM170.819 65.6511V65.0629C170.663 65.0629 170.513 65.1248 170.403 65.2351L170.819 65.6511ZM174.474 65.6511V66.2393C174.799 66.2393 175.062 65.976 175.062 65.6511H174.474ZM174.474 61.9963L174.058 61.5803C173.947 61.6907 173.885 61.8403 173.885 61.9963H174.474ZM177.058 59.4118L177.474 59.8278C177.704 59.598 177.704 59.2256 177.474 58.9959L177.058 59.4118ZM174.474 56.8274H173.885C173.885 56.9834 173.947 57.133 174.058 57.2433L174.474 56.8274ZM174.474 53.1727H175.062C175.062 52.8479 174.799 52.5845 174.474 52.5845V53.1727ZM170.819 53.1727L170.403 53.5887C170.513 53.699 170.663 53.761 170.819 53.761V53.1727ZM168.235 50.5883L168.651 50.1723C168.421 49.9426 168.048 49.9426 167.819 50.1723L168.235 50.5883ZM165.65 53.1727V53.761C165.806 53.761 165.956 53.699 166.066 53.5887L165.65 53.1727ZM161.995 53.1727V52.5845C161.67 52.5845 161.407 52.8479 161.407 53.1727H161.995ZM161.995 56.8276L162.411 57.2435C162.522 57.1332 162.584 56.9836 162.584 56.8276H161.995ZM159.411 59.4118L158.995 58.9959C158.885 59.1062 158.823 59.2558 158.823 59.4118C158.823 59.5678 158.885 59.7175 158.995 59.8278L159.411 59.4118ZM161.995 61.9961H162.584C162.584 61.84 162.522 61.6904 162.411 61.5801L161.995 61.9961ZM161.995 65.6511H161.407C161.407 65.976 161.67 66.2393 161.995 66.2393V65.6511ZM168.651 67.8194L166.066 65.2351L165.234 66.067L167.819 68.6513L168.651 67.8194ZM170.403 65.2351L167.819 67.8194L168.651 68.6513L171.235 66.067L170.403 65.2351ZM174.474 65.0629H170.819V66.2393H174.474V65.0629ZM173.885 61.9963V65.6511H175.062V61.9963H173.885ZM176.642 58.9959L174.058 61.5803L174.89 62.4122L177.474 59.8278L176.642 58.9959ZM174.058 57.2433L176.642 59.8278L177.474 58.9959L174.89 56.4114L174.058 57.2433ZM173.885 53.1727V56.8274H175.062V53.1727H173.885ZM170.819 53.761H174.474V52.5845H170.819V53.761ZM167.819 51.0042L170.403 53.5887L171.235 52.7568L168.651 50.1723L167.819 51.0042ZM166.066 53.5887L168.651 51.0042L167.819 50.1723L165.234 52.7568L166.066 53.5887ZM161.995 53.761H165.65V52.5845H161.995V53.761ZM162.584 56.8276V53.1727H161.407V56.8276H162.584ZM159.827 59.8278L162.411 57.2435L161.579 56.4116L158.995 58.9959L159.827 59.8278ZM162.411 61.5801L159.827 58.9959L158.995 59.8278L161.579 62.412L162.411 61.5801ZM162.584 65.6511V61.9961H161.407V65.6511H162.584ZM165.65 65.0629H161.995V66.2393H165.65V65.0629Z" fill="#808080"/>
<path fill-rule="evenodd" clip-rule="evenodd" d="M495.862 221.194C495.876 220.994 495.883 220.792 495.883 220.588C495.883 215.715 491.932 211.765 487.059 211.765C482.186 211.765 478.236 215.715 478.236 220.588C478.236 220.786 478.242 220.982 478.255 221.176H477.647C472.774 221.176 468.823 225.127 468.823 230C468.823 234.873 472.774 238.824 477.647 238.824H495.294C500.167 238.824 504.118 234.873 504.118 230C504.118 225.318 500.471 221.487 495.862 221.194Z" fill="white"/>
<path d="M495.862 221.194L495.275 221.155C495.265 221.311 495.317 221.465 495.42 221.582C495.523 221.7 495.669 221.772 495.825 221.782L495.862 221.194ZM478.255 221.176V221.765C478.418 221.765 478.573 221.697 478.684 221.579C478.796 221.46 478.853 221.3 478.842 221.138L478.255 221.176ZM495.294 220.588C495.294 220.779 495.288 220.968 495.275 221.155L496.449 221.234C496.464 221.021 496.471 220.805 496.471 220.588H495.294ZM487.059 212.353C491.607 212.353 495.294 216.04 495.294 220.588H496.471C496.471 215.39 492.257 211.176 487.059 211.176V212.353ZM478.824 220.588C478.824 216.04 482.511 212.353 487.059 212.353V211.176C481.861 211.176 477.647 215.39 477.647 220.588H478.824ZM478.842 221.138C478.83 220.956 478.824 220.773 478.824 220.588H477.647C477.647 220.799 477.654 221.008 477.668 221.215L478.842 221.138ZM477.647 221.765H478.255V220.588H477.647V221.765ZM469.412 230C469.412 225.452 473.099 221.765 477.647 221.765V220.588C472.449 220.588 468.235 224.802 468.235 230H469.412ZM477.647 238.235C473.099 238.235 469.412 234.548 469.412 230H468.235C468.235 235.198 472.449 239.412 477.647 239.412V238.235ZM495.294 238.235H477.647V239.412H495.294V238.235ZM503.529 230C503.529 234.548 499.842 238.235 495.294 238.235V239.412C500.492 239.412 504.706 235.198 504.706 230H503.529ZM495.825 221.782C500.125 222.055 503.529 225.63 503.529 230H504.706C504.706 225.005 500.816 220.92 495.9 220.607L495.825 221.782Z" fill="#808080"/>
<path d="M445.295 272.941C447.894 272.941 450.001 270.834 450.001 268.235C450.001 265.636 447.894 263.529 445.295 263.529C442.696 263.529 440.589 265.636 440.589 268.235C440.589 270.834 442.696 272.941 445.295 272.941Z" fill="#F2F2F2" stroke="#808080" stroke-width="1.17647" stroke-linejoin="round"/>
<path d="M167.647 91.7646C170.246 91.7646 172.353 89.6577 172.353 87.0587C172.353 84.4597 170.246 82.3528 167.647 82.3528C165.048 82.3528 162.941 84.4597 162.941 87.0587C162.941 89.6577 165.048 91.7646 167.647 91.7646Z" fill="#F2F2F2" stroke="#808080" stroke-width="1.17647" stroke-linejoin="round"/>
<path d="M167.647 36.4706C170.246 36.4706 172.353 34.3637 172.353 31.7647C172.353 29.1657 170.246 27.0588 167.647 27.0588C165.048 27.0588 162.941 29.1657 162.941 31.7647C162.941 34.3637 165.048 36.4706 167.647 36.4706Z" fill="#F2F2F2" stroke="#808080" stroke-width="1.17647" stroke-linejoin="round"/>
<path d="M498.236 272.941C500.835 272.941 502.942 270.834 502.942 268.235C502.942 265.636 500.835 263.529 498.236 263.529C495.637 263.529 493.53 265.636 493.53 268.235C493.53 270.834 495.637 272.941 498.236 272.941Z" fill="#F2F2F2" stroke="#808080" stroke-width="1.17647" stroke-linejoin="round"/>
<path d="M355.883 212.941H342.941" stroke="#808080" stroke-width="2.35294" stroke-linecap="round" stroke-linejoin="round"/>
<path d="M359.412 232.941L371.177 241.765L359.412 250.588M377.059 250.588H388.824" stroke="#808080" stroke-width="1.17647" stroke-linecap="round" stroke-linejoin="round"/>
<path d="M127.647 47.0588H68.8238C65.575 47.0588 62.9414 49.6924 62.9414 52.9411V103.529C62.9414 106.778 65.575 109.412 68.8238 109.412H127.647C130.896 109.412 133.53 106.778 133.53 103.529V52.9411C133.53 49.6924 130.896 47.0588 127.647 47.0588Z" fill="#F2F2F2" stroke="black" stroke-width="1.17647" stroke-linejoin="round"/>
<path d="M27.6465 32.9412C27.6465 29.6925 30.2801 27.0588 33.5288 27.0588H109.999C113.248 27.0588 115.882 29.6925 115.882 32.9412V85.8824C115.882 89.1311 113.248 91.7647 109.999 91.7647H47.7301C46.17 91.7647 44.6738 92.3845 43.5706 93.4876L27.6465 109.412V32.9412Z" fill="#3959FF" stroke="black" stroke-width="1.17647" stroke-linejoin="round"/>
<path d="M51.1758 64.3712L71.764 53.9932L92.3523 64.3712L71.764 74.7493L51.1758 64.3712Z" fill="white" stroke="black" stroke-width="1.17647" stroke-linejoin="round"/>
<path d="M71.764 82.4441L51.1758 72.6334V64.3713L71.764 74.1821V82.4441Z" fill="#F2F2F2" stroke="black" stroke-width="1.17647" stroke-linejoin="round"/>
<path d="M71.7642 82.4441L92.3524 72.6334V64.3713L71.7642 74.1821V82.4441Z" fill="white" stroke="black" stroke-width="1.17647" stroke-linejoin="round"/>
<path d="M51.1758 46.8488L71.764 36.4707L92.3523 46.8488L71.764 57.2268L51.1758 46.8488Z" fill="white" stroke="black" stroke-width="1.17647" stroke-linejoin="round"/>
<path d="M71.764 64.006L51.1758 54.1952V46.8486L71.764 56.6594V64.006Z" fill="#F2F2F2" stroke="black" stroke-width="1.17647" stroke-linejoin="round"/>
<path d="M71.7642 64.006L92.3524 54.1952V46.8486L71.7642 56.6594V64.006Z" fill="white" stroke="black" stroke-width="1.17647" stroke-linejoin="round"/>
<path fill-rule="evenodd" clip-rule="evenodd" d="M445.295 90.5882V78.8235H433.53C431.118 78.8235 429.045 80.2754 428.137 82.353H404.119V87.0589H428.137C429.045 89.1364 431.118 90.5882 433.53 90.5882H445.295Z" fill="#F2F2F2"/>
<path d="M445.295 78.8235H445.883C445.883 78.4986 445.62 78.2353 445.295 78.2353V78.8235ZM445.295 90.5882V91.1764C445.62 91.1764 445.883 90.9131 445.883 90.5882H445.295ZM428.137 82.353V82.9412C428.371 82.9412 428.583 82.8027 428.676 82.5885L428.137 82.353ZM404.119 82.353V81.7647C403.794 81.7647 403.531 82.0281 403.531 82.353H404.119ZM404.119 87.0589H403.531C403.531 87.3837 403.794 87.6471 404.119 87.6471V87.0589ZM428.137 87.0589L428.676 86.8233C428.583 86.6091 428.371 86.4706 428.137 86.4706V87.0589ZM444.707 78.8235V90.5882H445.883V78.8235H444.707ZM433.53 79.4117H445.295V78.2353H433.53V79.4117ZM428.676 82.5885C429.494 80.7174 431.36 79.4117 433.53 79.4117V78.2353C430.876 78.2353 428.596 79.8334 427.598 82.1175L428.676 82.5885ZM428.137 81.7647H404.119V82.9412H428.137V81.7647ZM403.531 82.353V87.0589H404.707V82.353H403.531ZM404.119 87.6471H428.137V86.4706H404.119V87.6471ZM433.53 90C431.36 90 429.494 88.6943 428.676 86.8233L427.598 87.2944C428.596 89.5784 430.876 91.1764 433.53 91.1764V90ZM445.295 90H433.53V91.1764H445.295V90Z" fill="#808080"/>
<path fill-rule="evenodd" clip-rule="evenodd" d="M410 96.4708V72.9414H401.765C401.765 74.8907 400.185 76.4708 398.236 76.4708C396.287 76.4708 394.707 74.8907 394.707 72.9414H380.588C374.091 72.9414 368.824 78.2086 368.824 84.7061C368.824 91.2036 374.091 96.4708 380.588 96.4708H394.707C394.707 94.5215 396.287 92.9414 398.236 92.9414C400.185 92.9414 401.765 94.5215 401.765 96.4708H410Z" fill="white"/>
<path d="M410 72.9414H410.588C410.588 72.6165 410.325 72.3532 410 72.3532V72.9414ZM410 96.4708V97.0591C410.156 97.0591 410.306 96.9971 410.416 96.8868C410.526 96.7764 410.588 96.6268 410.588 96.4708H410ZM401.765 72.9414V72.3532C401.609 72.3532 401.46 72.4151 401.349 72.5255C401.239 72.6358 401.177 72.7854 401.177 72.9414H401.765ZM394.707 72.9414H395.295C395.295 72.6165 395.031 72.3532 394.707 72.3532V72.9414ZM394.707 96.4708V97.0591C395.031 97.0591 395.295 96.7957 395.295 96.4708H394.707ZM401.765 96.4708H401.177C401.177 96.7957 401.441 97.0591 401.765 97.0591V96.4708ZM409.412 72.9414V96.4708H410.588V72.9414H409.412ZM401.765 73.5296H410V72.3532H401.765V73.5296ZM398.236 77.0591C400.51 77.0591 402.354 75.2155 402.354 72.9414H401.177C401.177 74.5658 399.86 75.8826 398.236 75.8826V77.0591ZM394.118 72.9414C394.118 75.2155 395.962 77.0591 398.236 77.0591V75.8826C396.612 75.8826 395.295 74.5658 395.295 72.9414H394.118ZM380.588 73.5296H394.707V72.3532H380.588V73.5296ZM369.412 84.7061C369.412 78.5335 374.416 73.5296 380.588 73.5296V72.3532C373.766 72.3532 368.235 77.8838 368.235 84.7061H369.412ZM380.588 95.8826C374.416 95.8826 369.412 90.8787 369.412 84.7061H368.235C368.235 91.5285 373.766 97.0591 380.588 97.0591V95.8826ZM394.707 95.8826H380.588V97.0591H394.707V95.8826ZM398.236 92.3531C395.962 92.3531 394.118 94.1967 394.118 96.4708H395.295C395.295 94.8464 396.612 93.5296 398.236 93.5296V92.3531ZM402.354 96.4708C402.354 94.1967 400.51 92.3531 398.236 92.3531V93.5296C399.86 93.5296 401.177 94.8464 401.177 96.4708H402.354ZM410 95.8826H401.765V97.0591H410V95.8826Z" fill="#808080"/>
<path fill-rule="evenodd" clip-rule="evenodd" d="M349.53 44.706C349.53 48.6044 346.369 51.7648 342.471 51.7648H327.648L333.648 62.3532H353.648L359.399 52.2037L393.069 53.7001C398.193 53.9278 402.471 49.8352 402.471 44.7062C402.471 39.5772 398.193 35.4846 393.069 35.7123L359.399 37.2087L353.648 27.0591H333.648L327.648 37.6471H342.471C346.369 37.6471 349.53 40.8075 349.53 44.706Z" fill="#F2F2F2"/>
<path d="M327.648 51.7648V51.1765C327.438 51.1765 327.245 51.2878 327.139 51.4686C327.034 51.6495 327.033 51.8727 327.136 52.0548L327.648 51.7648ZM333.648 62.3532L333.136 62.6432C333.24 62.8275 333.436 62.9414 333.648 62.9414V62.3532ZM353.648 62.3532V62.9414C353.86 62.9414 354.055 62.8275 354.16 62.6432L353.648 62.3532ZM359.399 52.2037L359.425 51.616C359.204 51.6062 358.996 51.7212 358.887 51.9137L359.399 52.2037ZM359.399 37.2087L358.887 37.4988C358.997 37.6912 359.204 37.8062 359.425 37.7964L359.399 37.2087ZM353.648 27.0591L354.16 26.7691C354.055 26.5847 353.86 26.4708 353.648 26.4708V27.0591ZM333.648 27.0591V26.4708C333.436 26.4708 333.24 26.5847 333.136 26.7691L333.648 27.0591ZM327.648 37.6471L327.136 37.3571C327.033 37.5392 327.034 37.7625 327.14 37.9433C327.245 38.1241 327.439 38.2354 327.648 38.2354V37.6471ZM342.471 52.353C346.694 52.353 350.118 48.9293 350.118 44.706H348.942C348.942 48.2796 346.045 51.1765 342.471 51.1765V52.353ZM327.648 52.353H342.471V51.1765H327.648V52.353ZM327.136 52.0548L333.136 62.6432L334.16 62.0632L328.159 51.4748L327.136 52.0548ZM333.648 62.9414H353.648V61.765H333.648V62.9414ZM354.16 62.6432L359.911 52.4937L358.887 51.9137L353.136 62.0632L354.16 62.6432ZM359.373 52.7913L393.043 54.2877L393.095 53.1124L359.425 51.616L359.373 52.7913ZM393.043 54.2877C398.501 54.5303 403.059 50.1703 403.059 44.7062H401.883C401.883 49.5 397.884 53.3253 393.095 53.1124L393.043 54.2877ZM403.059 44.7062C403.059 39.2421 398.501 34.8821 393.042 35.1247L393.095 36.3C397.884 36.0871 401.883 39.9124 401.883 44.7062H403.059ZM393.042 35.1247L359.373 36.6211L359.425 37.7964L393.095 36.3L393.042 35.1247ZM359.911 36.9187L354.16 26.7691L353.136 27.3491L358.887 37.4988L359.911 36.9187ZM353.648 26.4708H333.648V27.6473H353.648V26.4708ZM333.136 26.7691L327.136 37.3571L328.16 37.9371L334.16 27.3491L333.136 26.7691ZM342.471 37.0589H327.648V38.2354H342.471V37.0589ZM350.118 44.706C350.118 40.4826 346.694 37.0589 342.471 37.0589V38.2354C346.045 38.2354 348.942 41.1323 348.942 44.706H350.118Z" fill="#808080"/>
<path d="M439.412 52.9412H427.648V40.6162H420.589L433.53 27.0588L446.471 40.6162H439.412V52.9412Z" fill="white" stroke="#808080" stroke-width="1.17647" stroke-linecap="round" stroke-linejoin="round"/>
<path d="M445.294 205.882V236.471" stroke="black" stroke-width="2.35294" stroke-linecap="round" stroke-linejoin="round"/>
<path d="M171.177 121.177V178.824" stroke="black" stroke-width="2.35294" stroke-linecap="round" stroke-linejoin="round"/>
<path d="M358.236 121.177V178.824" stroke="black" stroke-width="2.35294" stroke-linecap="round" stroke-linejoin="round"/>
<path d="M39.8206 138.235C39.4957 138.235 39.2324 137.972 39.2324 137.647C39.2324 137.322 39.4957 137.059 39.8206 137.059V138.235ZM57.8836 172.339C58.1133 172.569 58.1133 172.942 57.8836 173.171L54.1401 176.915C53.9104 177.144 53.5379 177.144 53.3082 176.915C53.0785 176.685 53.0785 176.313 53.3082 176.083L56.6358 172.755L53.3082 169.428C53.0785 169.198 53.0785 168.826 53.3082 168.596C53.5379 168.366 53.9104 168.366 54.1401 168.596L57.8836 172.339ZM39.8206 137.059H48.6441V138.235H39.8206V137.059ZM48.6441 155.882H37.5538V154.706H48.6441V155.882ZM37.5538 172.167H57.4677V173.344H37.5538V172.167ZM29.4114 164.025C29.4114 168.522 33.0569 172.167 37.5538 172.167V173.344C32.4071 173.344 28.2349 169.171 28.2349 164.025H29.4114ZM37.5538 155.882C33.0569 155.882 29.4114 159.528 29.4114 164.025H28.2349C28.2349 158.878 32.4071 154.706 37.5538 154.706V155.882ZM58.0558 146.471C58.0558 151.668 53.842 155.882 48.6441 155.882V154.706C53.1923 154.706 56.8794 151.019 56.8794 146.471H58.0558ZM48.6441 137.059C53.842 137.059 58.0558 141.273 58.0558 146.471H56.8794C56.8794 141.922 53.1923 138.235 48.6441 138.235V137.059Z" fill="black"/>
<path d="M497.059 109.412H451.176C447.928 109.412 445.294 112.046 445.294 115.294V165.883C445.294 169.131 447.928 171.765 451.176 171.765H497.059C500.307 171.765 502.941 169.131 502.941 165.883V115.294C502.941 112.046 500.307 109.412 497.059 109.412Z" fill="#3959FF" stroke="black" stroke-width="1.17647" stroke-linejoin="round"/>
<path d="M431.176 129.412C431.176 126.163 433.809 123.529 437.058 123.529H484.117C487.366 123.529 489.999 126.163 489.999 129.412V182.353C489.999 185.602 487.366 188.235 484.117 188.235H448.823L431.176 170.588V129.412Z" fill="#3959FF" stroke="black" stroke-width="1.17647" stroke-linejoin="round"/>
<path d="M448.823 170.588H431.176L448.823 188.235V170.588Z" fill="#3959FF" stroke="black" stroke-width="1.17647" stroke-linejoin="round"/>
<path d="M442.94 135.294V158.823" stroke="black" stroke-width="2.35294" stroke-linecap="round" stroke-linejoin="round"/>
<path d="M474.877 169.522V170.362H473.559C473.378 172.552 471.995 173.837 470.051 173.92V172.75C471.599 172.635 472.604 171.712 472.604 169.901C472.604 168.402 471.813 167.2 470.479 167.2C469.326 167.2 468.816 167.858 468.503 169.341L468.223 170.658C467.893 172.075 467.268 173.574 465.291 173.574C463.628 173.574 462.31 172.272 462.145 170.362H460.778V169.522H462.145C462.31 167.644 463.595 166.228 465.571 166.112V167.282C464.138 167.364 463.101 168.402 463.101 169.901C463.101 171.498 464.089 172.388 465.225 172.388C466.526 172.388 466.938 171.334 467.185 170.181L467.465 168.88C467.844 167.183 468.536 165.981 470.331 165.981C472.028 165.981 473.444 167.232 473.559 169.522H474.877ZM469.063 159.792V162.443H473.411V163.679H461.585V159.792C461.585 157.354 462.919 155.69 465.308 155.69C467.696 155.69 469.063 157.354 469.063 159.792ZM462.639 159.808V162.443H468.009V159.808C468.009 158.046 467.037 156.926 465.308 156.926C463.595 156.926 462.639 158.046 462.639 159.808ZM473.658 148.5C473.658 151.925 470.924 154.462 467.482 154.462C464.039 154.462 461.338 151.925 461.338 148.5C461.338 145.074 464.039 142.521 467.482 142.521C470.924 142.521 473.658 145.074 473.658 148.5ZM472.555 148.5C472.555 145.7 470.315 143.805 467.482 143.805C464.649 143.805 462.442 145.7 462.442 148.5C462.442 151.283 464.649 153.194 467.482 153.194C470.315 153.194 472.555 151.283 472.555 148.5ZM473.411 133.796V140.549H461.585V139.314H472.308V133.796H473.411Z" fill="black"/>
<path d="M211.766 124.706V111.765H224.707L211.766 124.706Z" fill="white" stroke="#808080" stroke-width="1.17647" stroke-linejoin="round"/>
<path d="M317.06 175.883V188.824H304.118L317.06 175.883Z" fill="white" stroke="#808080" stroke-width="1.17647" stroke-linejoin="round"/>
<path d="M467.647 27.6471C467.322 27.6471 467.059 27.3837 467.059 27.0588C467.059 26.734 467.322 26.4706 467.647 26.4706V27.6471ZM467.231 80.4159C467.002 80.1862 467.002 79.8137 467.231 79.584L470.975 75.8405C471.205 75.6108 471.577 75.6108 471.807 75.8405C472.036 76.0702 472.036 76.4427 471.807 76.6724L468.479 80L471.807 83.3275C472.036 83.5572 472.036 83.9297 471.807 84.1594C471.577 84.3891 471.205 84.3891 470.975 84.1594L467.231 80.4159ZM467.647 26.4706H494.118V27.6471H467.647V26.4706ZM494.118 45.2941H476.378V44.1177H494.118V45.2941ZM476.378 61.5789H487.375V62.7554H476.378V61.5789ZM487.375 80.5882H467.647V79.4117H487.375V80.5882ZM496.88 71.0836C496.88 76.3328 492.625 80.5882 487.375 80.5882V79.4117C491.975 79.4117 495.704 75.6831 495.704 71.0836H496.88ZM487.375 61.5789C492.625 61.5789 496.88 65.8343 496.88 71.0836H495.704C495.704 66.484 491.975 62.7554 487.375 62.7554V61.5789ZM468.236 53.4365C468.236 57.9334 471.881 61.5789 476.378 61.5789V62.7554C471.231 62.7554 467.059 58.5832 467.059 53.4365H468.236ZM476.378 45.2941C471.881 45.2941 468.236 48.9396 468.236 53.4365H467.059C467.059 48.2899 471.231 44.1177 476.378 44.1177V45.2941ZM503.53 35.8824C503.53 41.0803 499.316 45.2941 494.118 45.2941V44.1177C498.666 44.1177 502.353 40.4306 502.353 35.8824H503.53ZM494.118 26.4706C499.316 26.4706 503.53 30.6844 503.53 35.8824H502.353C502.353 31.3341 498.666 27.6471 494.118 27.6471V26.4706Z" fill="#808080"/>
<path d="M380.588 177.647L395.294 154.118L410 177.647H380.588Z" fill="#F2F2F2" stroke="#808080" stroke-width="1.17647" stroke-linejoin="round"/>
<path d="M380.588 154.118L395.294 130.588L410 154.118H380.588Z" fill="#F2F2F2" stroke="#808080" stroke-width="1.17647" stroke-linejoin="round"/>
<path d="M380.588 122.353V130.588H410V122.353H380.588Z" fill="#F2F2F2" stroke="#808080" stroke-width="1.17647" stroke-linejoin="round"/>
<path d="M467.647 27.6471C467.322 27.6471 467.059 27.3837 467.059 27.0588C467.059 26.734 467.322 26.4706 467.647 26.4706V27.6471ZM467.231 80.4159C467.002 80.1862 467.002 79.8137 467.231 79.584L470.975 75.8405C471.205 75.6108 471.577 75.6108 471.807 75.8405C472.036 76.0702 472.036 76.4427 471.807 76.6724L468.479 80L471.807 83.3275C472.036 83.5572 472.036 83.9297 471.807 84.1594C471.577 84.3891 471.205 84.3891 470.975 84.1594L467.231 80.4159ZM467.647 26.4706H494.118V27.6471H467.647V26.4706ZM494.118 45.2941H476.378V44.1177H494.118V45.2941ZM476.378 61.5789H487.375V62.7554H476.378V61.5789ZM487.375 80.5882H467.647V79.4117H487.375V80.5882ZM496.88 71.0836C496.88 76.3328 492.625 80.5882 487.375 80.5882V79.4117C491.975 79.4117 495.704 75.6831 495.704 71.0836H496.88ZM487.375 61.5789C492.625 61.5789 496.88 65.8343 496.88 71.0836H495.704C495.704 66.484 491.975 62.7554 487.375 62.7554V61.5789ZM468.236 53.4365C468.236 57.9334 471.881 61.5789 476.378 61.5789V62.7554C471.231 62.7554 467.059 58.5832 467.059 53.4365H468.236ZM476.378 45.2941C471.881 45.2941 468.236 48.9396 468.236 53.4365H467.059C467.059 48.2899 471.231 44.1177 476.378 44.1177V45.2941ZM503.53 35.8824C503.53 41.0803 499.316 45.2941 494.118 45.2941V44.1177C498.666 44.1177 502.353 40.4306 502.353 35.8824H503.53ZM494.118 26.4706C499.316 26.4706 503.53 30.6844 503.53 35.8824H502.353C502.353 31.3341 498.666 27.6471 494.118 27.6471V26.4706Z" fill="black"/>
<path d="M380.588 177.647L395.294 154.118L410 177.647H380.588Z" fill="#F2F2F2" stroke="#808080" stroke-width="1.17647" stroke-linejoin="round"/>
<path d="M380.588 154.118L395.294 130.588L410 154.118H380.588Z" fill="#F2F2F2" stroke="#808080" stroke-width="1.17647" stroke-linejoin="round"/>
<path d="M380.588 123.529V130.588H410V123.529H380.588Z" fill="#F2F2F2" stroke="#808080" stroke-width="1.17647" stroke-linejoin="round"/>
<path d="M194.706 38.8235C194.706 32.3261 199.973 27.0588 206.471 27.0588H306.471C309.719 27.0588 312.353 29.6925 312.353 32.9412V68.2353C312.353 74.7328 307.086 80 300.588 80H215.322C213.795 80 212.328 80.5936 211.231 81.6553L194.706 97.6471V38.8235Z" fill="#F2F2F2" stroke="#808080" stroke-width="1.17647" stroke-linejoin="round"/>
<path d="M223.53 68.2355C232.301 68.2355 239.412 61.1247 239.412 52.3531C239.412 43.5815 232.301 36.4707 223.53 36.4707C214.758 36.4707 207.647 43.5815 207.647 52.3531C207.647 61.1247 214.758 68.2355 223.53 68.2355Z" fill="white" stroke="#808080" stroke-width="1.17647" stroke-linejoin="round"/>
<path d="M243.529 68.2355C252.3 68.2355 259.411 61.1247 259.411 52.3531C259.411 43.5815 252.3 36.4707 243.529 36.4707C234.757 36.4707 227.646 43.5815 227.646 52.3531C227.646 61.1247 234.757 68.2355 243.529 68.2355Z" fill="white" stroke="#808080" stroke-width="1.17647" stroke-linejoin="round"/>
<path d="M263.53 68.2355C272.301 68.2355 279.412 61.1247 279.412 52.3531C279.412 43.5815 272.301 36.4707 263.53 36.4707C254.758 36.4707 247.647 43.5815 247.647 52.3531C247.647 61.1247 254.758 68.2355 263.53 68.2355Z" fill="white" stroke="#808080" stroke-width="1.17647" stroke-linejoin="round"/>
<path d="M283.529 68.2352C292.3 68.2352 299.411 61.1244 299.411 52.3528C299.411 43.5812 292.3 36.4704 283.529 36.4704C274.757 36.4704 267.646 43.5812 267.646 52.3528C267.646 61.1244 274.757 68.2352 283.529 68.2352Z" fill="white" stroke="#808080" stroke-width="1.17647" stroke-linejoin="round"/>
<path fill-rule="evenodd" clip-rule="evenodd" d="M277.739 50.0929L275.479 52.3527L277.739 54.6126V57.8076H280.934L283.194 60.067L285.453 57.8076H288.649V54.6118L290.908 52.3527L288.649 50.0936V46.8979H285.453L283.194 44.6384L280.934 46.8979H277.739V50.0929Z" fill="#F2F2F2"/>
<path d="M275.479 52.3527L275.064 51.9368C274.953 52.0471 274.891 52.1967 274.891 52.3527C274.891 52.5087 274.953 52.6583 275.064 52.7687L275.479 52.3527ZM277.739 50.0929L278.155 50.5088C278.266 50.3985 278.328 50.2489 278.328 50.0929H277.739ZM277.739 54.6126H278.328C278.328 54.4565 278.266 54.3069 278.155 54.1966L277.739 54.6126ZM277.739 57.8076H277.151C277.151 58.1324 277.414 58.3958 277.739 58.3958V57.8076ZM280.934 57.8076L281.35 57.3916C281.24 57.2813 281.09 57.2193 280.934 57.2193V57.8076ZM283.194 60.067L282.778 60.4829C283.008 60.7127 283.38 60.7127 283.61 60.4829L283.194 60.067ZM285.453 57.8076V57.2193C285.297 57.2193 285.148 57.2813 285.037 57.3916L285.453 57.8076ZM288.649 57.8076V58.3958C288.974 58.3958 289.237 58.1324 289.237 57.8076H288.649ZM288.649 54.6118L288.233 54.1959C288.123 54.3062 288.061 54.4558 288.061 54.6118H288.649ZM290.908 52.3527L291.324 52.7687C291.554 52.5389 291.554 52.1665 291.324 51.9368L290.908 52.3527ZM288.649 50.0936H288.061C288.061 50.2496 288.123 50.3993 288.233 50.5096L288.649 50.0936ZM288.649 46.8979H289.237C289.237 46.573 288.974 46.3097 288.649 46.3097V46.8979ZM285.453 46.8979L285.037 47.3139C285.148 47.4242 285.297 47.4861 285.453 47.4861V46.8979ZM283.194 44.6384L283.61 44.2225C283.38 43.9928 283.008 43.9928 282.778 44.2225L283.194 44.6384ZM280.934 46.8979V47.4861C281.09 47.4861 281.24 47.4242 281.35 47.3139L280.934 46.8979ZM277.739 46.8979V46.3097C277.414 46.3097 277.151 46.573 277.151 46.8979H277.739ZM275.895 52.7687L278.155 50.5088L277.323 49.6769L275.064 51.9368L275.895 52.7687ZM278.155 54.1966L275.895 51.9368L275.064 52.7687L277.323 55.0285L278.155 54.1966ZM278.328 57.8076V54.6126H277.151V57.8076H278.328ZM280.934 57.2193H277.739V58.3958H280.934V57.2193ZM283.61 59.6511L281.35 57.3916L280.518 58.2235L282.778 60.4829L283.61 59.6511ZM285.037 57.3916L282.778 59.6511L283.61 60.4829L285.869 58.2235L285.037 57.3916ZM288.649 57.2193H285.453V58.3958H288.649V57.2193ZM288.061 54.6118V57.8076H289.237V54.6118H288.061ZM290.492 51.9368L288.233 54.1959L289.065 55.0277L291.324 52.7687L290.492 51.9368ZM288.233 50.5096L290.492 52.7687L291.324 51.9368L289.065 49.6777L288.233 50.5096ZM288.061 46.8979V50.0936H289.237V46.8979H288.061ZM285.453 47.4861H288.649V46.3097H285.453V47.4861ZM282.778 45.0544L285.037 47.3139L285.869 46.482L283.61 44.2225L282.778 45.0544ZM281.35 47.3139L283.61 45.0544L282.778 44.2225L280.518 46.482L281.35 47.3139ZM277.739 47.4861H280.934V46.3097H277.739V47.4861ZM278.328 50.0929V46.8979H277.151V50.0929H278.328Z" fill="#808080"/>
<path d="M194.706 38.8235C194.706 32.3261 199.973 27.0588 206.471 27.0588H306.471C309.719 27.0588 312.353 29.6925 312.353 32.9412V68.2353C312.353 74.7328 307.086 80 300.588 80H215.322C213.795 80 212.328 80.5936 211.231 81.6553L194.706 97.6471V38.8235Z" fill="#3959FF" stroke="black" stroke-width="1.17647" stroke-linejoin="round"/>
<path d="M223.53 68.2355C232.301 68.2355 239.412 61.1247 239.412 52.3531C239.412 43.5815 232.301 36.4707 223.53 36.4707C214.758 36.4707 207.647 43.5815 207.647 52.3531C207.647 61.1247 214.758 68.2355 223.53 68.2355Z" fill="white" stroke="black" stroke-width="1.17647" stroke-linejoin="round"/>
<path d="M243.529 68.2355C252.3 68.2355 259.411 61.1247 259.411 52.3531C259.411 43.5815 252.3 36.4707 243.529 36.4707C234.757 36.4707 227.646 43.5815 227.646 52.3531C227.646 61.1247 234.757 68.2355 243.529 68.2355Z" fill="white" stroke="black" stroke-width="1.17647" stroke-linejoin="round"/>
<path d="M263.53 68.2355C272.301 68.2355 279.412 61.1247 279.412 52.3531C279.412 43.5815 272.301 36.4707 263.53 36.4707C254.758 36.4707 247.647 43.5815 247.647 52.3531C247.647 61.1247 254.758 68.2355 263.53 68.2355Z" fill="white" stroke="black" stroke-width="1.17647" stroke-linejoin="round"/>
<path d="M283.529 68.2352C292.3 68.2352 299.411 61.1244 299.411 52.3528C299.411 43.5812 292.3 36.4704 283.529 36.4704C274.757 36.4704 267.646 43.5812 267.646 52.3528C267.646 61.1244 274.757 68.2352 283.529 68.2352Z" fill="white" stroke="black" stroke-width="1.17647" stroke-linejoin="round"/>
<path fill-rule="evenodd" clip-rule="evenodd" d="M277.739 50.0929L275.479 52.3527L277.739 54.6126V57.8076H280.934L283.194 60.067L285.453 57.8076H288.649V54.6118L290.908 52.3527L288.649 50.0936V46.8979H285.453L283.194 44.6384L280.934 46.8979H277.739V50.0929Z" fill="#F2F2F2"/>
<path d="M275.479 52.3527L275.064 51.9368C274.953 52.0471 274.891 52.1967 274.891 52.3527C274.891 52.5087 274.953 52.6583 275.064 52.7687L275.479 52.3527ZM277.739 50.0929L278.155 50.5088C278.266 50.3985 278.328 50.2489 278.328 50.0929H277.739ZM277.739 54.6126H278.328C278.328 54.4565 278.266 54.3069 278.155 54.1966L277.739 54.6126ZM277.739 57.8076H277.151C277.151 58.1324 277.414 58.3958 277.739 58.3958V57.8076ZM280.934 57.8076L281.35 57.3916C281.24 57.2813 281.09 57.2193 280.934 57.2193V57.8076ZM283.194 60.067L282.778 60.4829C283.008 60.7127 283.38 60.7127 283.61 60.4829L283.194 60.067ZM285.453 57.8076V57.2193C285.297 57.2193 285.148 57.2813 285.037 57.3916L285.453 57.8076ZM288.649 57.8076V58.3958C288.974 58.3958 289.237 58.1324 289.237 57.8076H288.649ZM288.649 54.6118L288.233 54.1959C288.123 54.3062 288.061 54.4558 288.061 54.6118H288.649ZM290.908 52.3527L291.324 52.7687C291.554 52.5389 291.554 52.1665 291.324 51.9368L290.908 52.3527ZM288.649 50.0936H288.061C288.061 50.2496 288.123 50.3993 288.233 50.5096L288.649 50.0936ZM288.649 46.8979H289.237C289.237 46.573 288.974 46.3097 288.649 46.3097V46.8979ZM285.453 46.8979L285.037 47.3139C285.148 47.4242 285.297 47.4861 285.453 47.4861V46.8979ZM283.194 44.6384L283.61 44.2225C283.38 43.9928 283.008 43.9928 282.778 44.2225L283.194 44.6384ZM280.934 46.8979V47.4861C281.09 47.4861 281.24 47.4242 281.35 47.3139L280.934 46.8979ZM277.739 46.8979V46.3097C277.414 46.3097 277.151 46.573 277.151 46.8979H277.739ZM275.895 52.7687L278.155 50.5088L277.323 49.6769L275.064 51.9368L275.895 52.7687ZM278.155 54.1966L275.895 51.9368L275.064 52.7687L277.323 55.0285L278.155 54.1966ZM278.328 57.8076V54.6126H277.151V57.8076H278.328ZM280.934 57.2193H277.739V58.3958H280.934V57.2193ZM283.61 59.6511L281.35 57.3916L280.518 58.2235L282.778 60.4829L283.61 59.6511ZM285.037 57.3916L282.778 59.6511L283.61 60.4829L285.869 58.2235L285.037 57.3916ZM288.649 57.2193H285.453V58.3958H288.649V57.2193ZM288.061 54.6118V57.8076H289.237V54.6118H288.061ZM290.492 51.9368L288.233 54.1959L289.065 55.0277L291.324 52.7687L290.492 51.9368ZM288.233 50.5096L290.492 52.7687L291.324 51.9368L289.065 49.6777L288.233 50.5096ZM288.061 46.8979V50.0936H289.237V46.8979H288.061ZM285.453 47.4861H288.649V46.3097H285.453V47.4861ZM282.778 45.0544L285.037 47.3139L285.869 46.482L283.61 44.2225L282.778 45.0544ZM281.35 47.3139L283.61 45.0544L282.778 44.2225L280.518 46.482L281.35 47.3139ZM277.739 47.4861H280.934V46.3097H277.739V47.4861ZM278.328 50.0929V46.8979H277.151V50.0929H278.328Z" fill="black"/>
<mask id="mask0_126_4" style="mask-type:luminance" maskUnits="userSpaceOnUse" x="231" y="114" width="73" height="72">
<path fill-rule="evenodd" clip-rule="evenodd" d="M303.509 136.474C303.509 135.622 303.509 134.771 303.504 133.919C303.5 133.201 303.491 132.484 303.472 131.767C303.43 130.204 303.337 128.628 303.06 127.082C302.778 125.515 302.317 124.055 301.592 122.631C300.879 121.231 299.947 119.95 298.836 118.839C297.725 117.728 296.443 116.797 295.043 116.084C293.617 115.359 292.156 114.899 290.587 114.617C289.041 114.339 287.464 114.247 285.901 114.205C285.184 114.186 284.466 114.177 283.749 114.173C282.897 114.168 282.044 114.168 281.192 114.168L271.299 114.133H263.9L254.182 114.168C253.328 114.168 252.474 114.168 251.621 114.173C250.901 114.177 250.182 114.186 249.463 114.205C247.897 114.247 246.317 114.339 244.767 114.617C243.196 114.899 241.733 115.359 240.305 116.084C238.902 116.797 237.618 117.728 236.504 118.839C235.391 119.949 234.457 121.23 233.743 122.63C233.015 124.055 232.554 125.515 232.272 127.084C231.993 128.629 231.901 130.205 231.859 131.767C231.84 132.484 231.831 133.201 231.827 133.919C231.822 134.771 231.778 135.829 231.778 136.68L231.778 146.264L231.778 153.743L231.822 163.531C231.822 164.384 231.822 165.237 231.827 166.089C231.831 166.808 231.84 167.526 231.859 168.244C231.901 169.809 231.994 171.388 232.272 172.935C232.555 174.505 233.016 175.966 233.742 177.393C234.457 178.795 235.39 180.078 236.504 181.19C237.617 182.302 238.901 183.234 240.305 183.948C241.733 184.675 243.197 185.136 244.769 185.418C246.318 185.696 247.898 185.788 249.463 185.83C250.182 185.85 250.901 185.858 251.621 185.862C252.474 185.867 253.328 185.867 254.182 185.867L263.988 185.867H271.405L281.192 185.867C282.044 185.867 282.897 185.867 283.749 185.862C284.466 185.858 285.184 185.85 285.901 185.83C287.465 185.788 289.042 185.696 290.588 185.417C292.157 185.135 293.617 184.675 295.042 183.949C296.443 183.235 297.724 182.302 298.836 181.19C299.947 180.078 300.879 178.795 301.592 177.393C302.317 175.966 302.778 174.504 303.06 172.933C303.338 171.386 303.43 169.808 303.472 168.244C303.491 167.526 303.5 166.808 303.504 166.089C303.509 165.237 303.509 164.384 303.509 163.531C303.509 163.531 303.508 153.916 303.508 153.743V146.256C303.508 146.129 303.509 136.474 303.509 136.474" fill="white"/>
</mask>
<g mask="url(#mask0_126_4)">
<rect width="832" height="832" transform="translate(232.122 113.896)" fill="#1B1B1B"/>
<rect width="832" height="832" transform="translate(232.122 113.896)" fill="url(#paint3_radial_126_4)"/>
<rect width="832" height="832" transform="translate(232.122 113.896)" fill="url(#paint4_radial_126_4)"/>
<g filter="url(#filter0_f_126_4)">
<path d="M281.115 175.128C280.752 177.814 278.108 179.913 275.481 179.188C271.738 178.163 267.404 176.563 263.504 176.265C262.99 176.226 257.527 175.814 257.527 175.814C256.561 175.745 255.654 175.325 254.979 174.634L244.681 164.088C243.555 162.936 243.251 161.217 243.912 159.751C243.912 159.751 250.28 145.834 250.517 145.11C250.753 144.387 251.621 138.074 252.135 134.683C252.272 133.784 252.718 132.961 253.397 132.353L265.58 121.455C267.275 119.938 269.906 120.163 271.316 121.944L281.55 134.873C282.13 135.604 282.426 136.514 282.431 137.445C282.442 139.894 282.646 144.923 284.007 148.162C285.332 151.312 287.763 154.715 289.034 156.389C289.522 157.032 289.596 157.901 289.185 158.594C288.288 160.103 286.516 163.003 284.007 166.722C282.278 169.287 281.477 172.457 281.115 175.128Z" fill="black" fill-opacity="0.29"/>
</g>
<path d="M281.215 174.679C280.852 177.377 278.211 179.486 275.586 178.758C271.847 177.728 267.517 176.121 263.621 175.821C263.108 175.782 257.65 175.368 257.65 175.368C256.685 175.299 255.779 174.877 255.105 174.183L244.816 163.589C243.692 162.431 243.388 160.705 244.048 159.233C244.048 159.233 250.41 145.252 250.646 144.525C250.883 143.798 251.75 137.457 252.264 134.05C252.4 133.148 252.846 132.32 253.524 131.71L265.695 120.762C267.389 119.239 270.017 119.465 271.426 121.254L281.65 134.241C282.228 134.976 282.525 135.889 282.529 136.825C282.541 139.285 282.744 144.337 284.104 147.59C285.428 150.755 287.857 154.173 289.126 155.855C289.613 156.501 289.688 157.373 289.276 158.07C288.38 159.586 286.61 162.499 284.104 166.235C282.377 168.812 281.576 171.996 281.215 174.679Z" fill="#6C31E3"/>
<path d="M256.214 174.984C260.992 165.284 260.858 158.334 258.825 153.375C256.954 148.811 253.474 145.932 250.731 144.145C250.673 144.404 250.589 144.656 250.481 144.897L244.048 159.233C243.388 160.705 243.692 162.432 244.816 163.589L255.105 174.183C255.428 174.516 255.804 174.786 256.214 174.984Z" fill="url(#paint5_radial_126_4)"/>
<path d="M275.587 178.756C278.211 179.484 280.852 177.376 281.215 174.677C281.528 172.354 282.17 169.654 283.459 167.298C280.502 160.932 276.926 157.631 273.005 156.168C268.856 154.619 264.32 155.13 259.725 156.246C260.752 160.921 260.137 167.027 256.219 174.983C256.665 175.199 257.151 175.331 257.654 175.367C257.654 175.367 260.482 175.605 263.844 175.843C267.207 176.081 272.211 177.82 275.587 178.756Z" fill="url(#paint6_radial_126_4)"/>
<path d="M269.216 155.295C270.507 155.43 271.772 155.708 273.004 156.168C276.925 157.631 280.502 160.933 283.46 167.298C283.659 166.935 283.873 166.58 284.104 166.235C286.61 162.499 288.38 159.586 289.276 158.07C289.688 157.373 289.613 156.501 289.126 155.855C287.856 154.173 285.427 150.755 284.104 147.59C282.744 144.337 282.54 139.285 282.529 136.825C282.524 135.889 282.228 134.976 281.65 134.241L271.425 121.254C271.371 121.185 271.314 121.117 271.256 121.053C272.006 123.511 271.955 125.489 271.493 127.287C271.064 128.954 270.28 130.466 269.453 132.063L269.453 132.064C269.175 132.599 268.893 133.145 268.617 133.709C267.52 135.954 266.528 138.495 266.382 141.902C266.236 145.31 266.935 149.584 269.216 155.295L269.216 155.295Z" fill="url(#paint7_radial_126_4)"/>
<path d="M269.215 155.295C266.933 149.584 266.234 145.31 266.381 141.902C266.527 138.495 267.518 135.954 268.616 133.708C268.892 133.144 269.174 132.599 269.452 132.063C270.279 130.466 271.062 128.953 271.491 127.287C271.954 125.488 272.005 123.51 271.254 121.05C269.812 119.45 267.322 119.299 265.695 120.762L253.524 131.71C252.845 132.32 252.4 133.148 252.263 134.05L250.782 143.872C250.768 143.964 250.751 144.054 250.731 144.144C253.474 145.931 256.955 148.81 258.826 153.374C259.191 154.266 259.496 155.221 259.721 156.246C262.953 155.461 266.155 154.976 269.215 155.295Z" fill="url(#paint8_radial_126_4)"/>
<path fill-rule="evenodd" clip-rule="evenodd" d="M266.405 141.678C266.258 145.058 266.68 148.935 268.957 154.635L268.242 154.571C266.199 148.623 265.754 145.573 265.903 142.146C266.052 138.718 267.16 136.081 268.264 133.833C268.543 133.263 269.196 132.193 269.475 131.657C270.301 130.067 270.852 129.227 271.324 127.774C271.984 125.744 271.841 124.783 271.766 123.826C272.29 127.285 270.301 130.293 268.797 133.356C267.702 135.588 266.551 138.299 266.405 141.678Z" fill="url(#paint9_radial_126_4)"/>
<path fill-rule="evenodd" clip-rule="evenodd" d="M259.498 153.626C259.768 154.25 260.023 154.755 260.184 155.527L259.588 155.661C259.339 154.759 259.148 154.117 258.804 153.343C256.748 148.493 253.449 145.998 250.752 144.168C254.009 145.92 257.352 148.663 259.498 153.626Z" fill="url(#paint10_radial_126_4)"/>
<path fill-rule="evenodd" clip-rule="evenodd" d="M260.219 156.138C261.358 161.439 260.087 168.174 256.342 174.722C259.472 168.233 260.99 162.001 259.726 156.243L260.219 156.138Z" fill="url(#paint11_radial_126_4)"/>
<path fill-rule="evenodd" clip-rule="evenodd" d="M273.146 155.661C279.286 157.959 281.651 163.005 283.418 167.214C281.235 162.806 278.201 157.939 272.925 156.132C268.911 154.757 265.521 154.92 259.726 156.235L259.597 155.661C265.747 154.259 268.963 154.095 273.146 155.661Z" fill="url(#paint12_radial_126_4)"/>
</g>
<defs>
<filter id="filter0_f_126_4" x="230.566" y="107.448" width="71.8857" height="84.8842" filterUnits="userSpaceOnUse" color-interpolation-filters="sRGB">
<feFlood flood-opacity="0" result="BackgroundImageFix"/>
<feBlend mode="normal" in="SourceGraphic" in2="BackgroundImageFix" result="shape"/>
<feGaussianBlur stdDeviation="6.5" result="effect1_foregroundBlur_126_4"/>
</filter>
<linearGradient id="paint0_linear_126_4" x1="183.53" y1="237.647" x2="178.5" y2="255" gradientUnits="userSpaceOnUse">
<stop stop-color="#3959FF"/>
<stop offset="1" stop-color="#3959FF" stop-opacity="0"/>
</linearGradient>
<linearGradient id="paint1_linear_126_4" x1="147.5" y1="221" x2="173.5" y2="247" gradientUnits="userSpaceOnUse">
<stop stop-color="#3959FF"/>
<stop offset="1" stop-color="#3959FF"/>
</linearGradient>
<linearGradient id="paint2_linear_126_4" x1="160.278" y1="221.053" x2="160.278" y2="247.059" gradientUnits="userSpaceOnUse">
<stop stop-color="#3959FF"/>
<stop offset="1" stop-color="#3959FF"/>
</linearGradient>
<radialGradient id="paint3_radial_126_4" cx="0" cy="0" r="1" gradientUnits="userSpaceOnUse" gradientTransform="translate(416 521.793) rotate(90) scale(339.695 441.724)">
<stop stop-opacity="0.35"/>
<stop offset="1" stop-opacity="0"/>
</radialGradient>
<radialGradient id="paint4_radial_126_4" cx="0" cy="0" r="1" gradientUnits="userSpaceOnUse" gradientTransform="translate(416) rotate(90) scale(832)">
<stop stop-color="white" stop-opacity="0.05"/>
<stop offset="1" stop-color="white" stop-opacity="0"/>
</radialGradient>
<radialGradient id="paint5_radial_126_4" cx="0" cy="0" r="1" gradientUnits="userSpaceOnUse" gradientTransform="translate(255.7 174.027) rotate(-104.573) scale(26.9145 17.935)">
<stop stop-color="white" stop-opacity="0.4"/>
<stop offset="1" stop-opacity="0.1"/>
</radialGradient>
<radialGradient id="paint6_radial_126_4" cx="0" cy="0" r="1" gradientUnits="userSpaceOnUse" gradientTransform="translate(274.382 180.057) rotate(-115.935) scale(22.225 25.518)">
<stop stop-color="white" stop-opacity="0.3"/>
<stop offset="1" stop-opacity="0.25"/>
</radialGradient>
<radialGradient id="paint7_radial_126_4" cx="0" cy="0" r="1" gradientUnits="userSpaceOnUse" gradientTransform="translate(278.638 162.96) rotate(-82.485) scale(44.1655 32.6282)">
<stop stop-color="white" stop-opacity="0.55"/>
<stop offset="1" stop-color="white" stop-opacity="0.05"/>
</radialGradient>
<radialGradient id="paint8_radial_126_4" cx="0" cy="0" r="1" gradientUnits="userSpaceOnUse" gradientTransform="translate(257.312 155.206) rotate(-77.722) scale(37.715 25.7195)">
<stop stop-color="white" stop-opacity="0.83"/>
<stop offset="1" stop-color="white" stop-opacity="0.4"/>
</radialGradient>
<radialGradient id="paint9_radial_126_4" cx="0" cy="0" r="1" gradientUnits="userSpaceOnUse" gradientTransform="translate(272.862 134.539) rotate(102.235) scale(19.6239 13.2325)">
<stop stop-color="white" stop-opacity="0"/>
<stop offset="1" stop-color="white" stop-opacity="0.17"/>
</radialGradient>
<radialGradient id="paint10_radial_126_4" cx="0" cy="0" r="1" gradientUnits="userSpaceOnUse" gradientTransform="translate(249.872 145.168) rotate(45.3252) scale(14.4595 30.7973)">
<stop stop-color="white" stop-opacity="0.2"/>
<stop offset="1" stop-color="white" stop-opacity="0.44"/>
</radialGradient>
<radialGradient id="paint11_radial_126_4" cx="0" cy="0" r="1" gradientUnits="userSpaceOnUse" gradientTransform="translate(260.788 152.01) rotate(80.2021) scale(16.9478 35.9878)">
<stop stop-color="white" stop-opacity="0.12"/>
<stop offset="1" stop-color="white" stop-opacity="0.35"/>
</radialGradient>
<radialGradient id="paint12_radial_126_4" cx="0" cy="0" r="1" gradientUnits="userSpaceOnUse" gradientTransform="translate(283.259 165.848) rotate(-152.295) scale(25.8233 81.2669)">
<stop stop-color="white" stop-opacity="0.21"/>
<stop offset="0.46738" stop-color="white" stop-opacity="0.19"/>
<stop offset="1" stop-color="white" stop-opacity="0.29"/>
</radialGradient>
</defs>
</svg>
