<svg width="40" height="40" viewBox="0 0 40 40" fill="none" xmlns="http://www.w3.org/2000/svg">
<mask id="mask0_126_298" style="mask-type:luminance" maskUnits="userSpaceOnUse" x="0" y="0" width="40" height="40">
<path fill-rule="evenodd" clip-rule="evenodd" d="M40 12.4576C40 11.9828 40.0002 11.5079 39.9973 11.033C39.9949 10.6329 39.9903 10.233 39.9794 9.83312C39.9559 8.96162 39.9045 8.08264 39.7495 7.22085C39.5923 6.34663 39.3356 5.53299 38.9311 4.73867C38.5335 3.95795 38.014 3.24353 37.3942 2.62417C36.7745 2.0048 36.0599 1.48567 35.2789 1.08825C34.4838 0.683638 33.6693 0.427037 32.7941 0.269902C31.9322 0.115145 31.053 0.0638347 30.1815 0.0402911C29.7813 0.0294659 29.3812 0.0249028 28.981 0.0224271C28.5058 0.0195145 28.0307 0.0197572 27.5555 0.0197572L22.0387 0H17.9125L12.4933 0.0197572C12.0172 0.0197572 11.5411 0.0195145 11.0651 0.0224271C10.664 0.0249028 10.2631 0.0294659 9.86221 0.0402911C8.98867 0.0638347 8.10746 0.115194 7.24354 0.270145C6.36719 0.427231 5.55146 0.683735 4.75526 1.08805C3.97259 1.48553 3.25643 2.0047 2.63547 2.62417C2.0146 3.24348 1.49416 3.95775 1.09577 4.73833C0.690141 5.53304 0.432958 6.34716 0.275386 7.22187C0.120242 8.08332 0.0688344 8.96201 0.0451938 9.83312C0.0344172 10.233 0.0297571 10.633 0.0273299 11.033C0.0244173 11.5079 0 12.0979 0 12.5728L0.00014563 17.9169L0 22.0873L0.02466 27.545C0.02466 28.0205 0.0244658 28.4961 0.0273299 28.9716C0.0297571 29.3722 0.0344172 29.7727 0.0452424 30.1731C0.0688344 31.0457 0.120339 31.926 0.275629 32.7889C0.433152 33.6643 0.690286 34.4791 1.09557 35.2744C1.49402 36.0563 2.01455 36.7716 2.63547 37.3919C3.25638 38.0121 3.97235 38.5319 4.75487 38.9299C5.55156 39.3351 6.36767 39.592 7.24456 39.7493C8.1081 39.9043 8.98901 39.9557 9.86221 39.9793C10.2631 39.9901 10.664 39.9947 11.0651 39.9971C11.5412 40 12.0172 39.9999 12.4933 39.9999L17.9615 40H22.0979L27.5555 39.9998C28.0307 39.9998 28.5058 40 28.981 39.9971C29.3812 39.9947 29.7813 39.9901 30.1815 39.9793C31.0533 39.9557 31.9328 39.9042 32.7951 39.7491C33.6698 39.5918 34.4839 39.335 35.2786 38.9301C36.0597 38.5321 36.7745 38.0122 37.3942 37.3919C38.0139 36.7717 38.5333 36.0565 38.931 35.2748C39.3357 34.4791 39.5924 33.6639 39.7497 32.7879C39.9046 31.9253 39.9559 31.0454 39.9795 30.1731C39.9903 29.7726 39.9949 29.3721 39.9973 28.9716C40.0002 28.4961 40 28.0205 40 27.545C40 27.545 39.9997 22.1837 39.9997 22.0873V17.9126C39.9997 17.8414 40 12.4576 40 12.4576" fill="white"/>
</mask>
<g mask="url(#mask0_126_298)">
<rect width="832" height="832" transform="translate(0.34375 -0.236816)" fill="#1B1B1B"/>
<rect width="832" height="832" transform="translate(0.34375 -0.236816)" fill="url(#paint0_radial_126_298)"/>
<rect width="832" height="832" transform="translate(0.34375 -0.236816)" fill="url(#paint1_radial_126_298)"/>
<g filter="url(#filter0_f_126_298)">
<path d="M27.5125 34.0116C27.3097 35.5096 25.8355 36.6798 24.3706 36.2758C22.2833 35.704 19.8665 34.812 17.6919 34.6458C17.4052 34.6239 14.359 34.3942 14.359 34.3942C13.8202 34.3561 13.3144 34.1219 12.9381 33.7366L7.19518 27.8559C6.56757 27.2133 6.39768 26.255 6.76647 25.4377C6.76647 25.4377 10.3176 17.6772 10.4494 17.2737C10.5813 16.8701 11.0654 13.3502 11.3522 11.4593C11.4282 10.9582 11.677 10.4989 12.0559 10.1599L18.8496 4.08299C19.7947 3.23757 21.2619 3.36285 22.0482 4.35614L27.7552 11.5651C28.0781 11.9731 28.2436 12.4801 28.246 12.9992C28.2525 14.365 28.3658 17.1691 29.1252 18.9752C29.864 20.7319 31.2198 22.6292 31.9284 23.5628C32.2003 23.9211 32.2419 24.4056 32.0122 24.7921C31.5121 25.634 30.5241 27.2506 29.1252 29.3247C28.1609 30.7548 27.714 32.5226 27.5125 34.0116Z" fill="black" fill-opacity="0.29"/>
</g>
<path d="M27.568 33.7613C27.3654 35.2661 25.8927 36.4416 24.4292 36.0357C22.3439 35.4613 19.9295 34.5653 17.7571 34.3983C17.4707 34.3763 14.4275 34.1456 14.4275 34.1456C13.8892 34.1073 13.3839 33.8721 13.008 33.485L7.27074 27.5775C6.64374 26.932 6.47403 25.9693 6.84245 25.1484C6.84245 25.1484 10.39 17.3526 10.5218 16.9472C10.6536 16.5418 11.1371 13.006 11.4236 11.1065C11.4996 10.6031 11.7481 10.1416 12.1267 9.80117L18.9136 3.69663C19.8579 2.84736 21.3235 2.97321 22.1091 3.97101L27.8104 11.2127C28.133 11.6226 28.2983 12.1319 28.3008 12.6534C28.3073 14.0254 28.4205 16.8422 29.1791 18.6565C29.9172 20.4212 31.2716 22.3271 31.9795 23.2649C32.2512 23.6249 32.2928 24.1116 32.0633 24.4998C31.5637 25.3456 30.5766 26.9695 29.1791 29.053C28.2157 30.4896 27.7693 32.2655 27.568 33.7613Z" fill="#6C31E3"/>
<path d="M13.6263 33.9316C16.2906 28.5225 16.2163 24.6474 15.0826 21.8819C14.0391 19.337 12.0985 17.7318 10.5689 16.7356C10.5367 16.8795 10.49 17.02 10.4295 17.1549L6.84245 25.1484C6.47403 25.9694 6.64374 26.9321 7.27074 27.5776L13.008 33.485C13.1879 33.6703 13.3976 33.8208 13.6263 33.9316Z" fill="url(#paint2_radial_126_298)"/>
<path d="M24.4301 36.035C25.8933 36.4408 27.3658 35.2653 27.5683 33.7605C27.7428 32.465 28.101 30.9592 28.8197 29.6459C27.1706 26.0961 25.1764 24.2553 22.9903 23.4394C20.6762 22.5758 18.1471 22.8605 15.5845 23.4828C16.1574 26.0898 15.8145 29.4945 13.6294 33.9311C13.8782 34.0515 14.1495 34.1249 14.4298 34.1449C14.4298 34.1449 16.0066 34.2776 17.8817 34.4103C19.7569 34.5431 22.5474 35.5129 24.4301 36.035Z" fill="url(#paint3_radial_126_298)"/>
<path d="M20.8771 22.9529C21.597 23.0281 22.3027 23.1833 22.9895 23.4395C25.176 24.2555 27.1707 26.0964 28.82 29.6459C28.9309 29.4433 29.0505 29.2452 29.1793 29.0531C30.5767 26.9696 31.5638 25.3457 32.0634 24.4999C32.2929 24.1117 32.2513 23.625 31.9796 23.265C31.2718 22.3272 29.9173 20.4213 29.1793 18.6566C28.4206 16.8423 28.3074 14.0255 28.301 12.6535C28.2985 12.132 28.1331 11.6227 27.8106 11.2128L22.1092 3.9711C22.0788 3.93238 22.0472 3.89498 22.0147 3.85889C22.4331 5.22984 22.4047 6.3327 22.1466 7.33527C21.9074 8.26467 21.4706 9.10791 21.0093 9.99859L21.0092 9.99872C20.8544 10.2974 20.697 10.6015 20.5432 10.916C19.9311 12.1681 19.3785 13.5849 19.297 15.4849C19.2154 17.3849 19.6049 19.768 20.8772 22.9528L20.8771 22.9529Z" fill="url(#paint4_radial_126_298)"/>
<path d="M20.8761 22.9527C19.6039 19.768 19.2142 17.3848 19.2958 15.4847C19.3774 13.5846 19.93 12.1677 20.5422 10.9156C20.696 10.601 20.8535 10.297 21.0083 9.99818C21.4695 9.10747 21.9063 8.26432 22.1455 7.33499C22.4036 6.33219 22.432 5.22904 22.0132 3.85751C21.2089 2.96483 19.8205 2.88071 18.9134 3.69663L12.1264 9.80117C11.7479 10.1416 11.4993 10.6031 11.4234 11.1065L10.5972 16.5833C10.5895 16.6341 10.5801 16.6846 10.5688 16.7348C12.0985 17.731 14.0395 19.3364 15.083 21.8816C15.2868 22.3787 15.4564 22.9116 15.582 23.4829C17.3842 23.0453 19.1699 22.7746 20.8761 22.9527Z" fill="url(#paint5_radial_126_298)"/>
<path fill-rule="evenodd" clip-rule="evenodd" d="M19.3094 15.3595C19.2276 17.2443 19.4628 19.4064 20.7324 22.5845L20.3338 22.5486C19.1947 19.2321 18.9468 17.5317 19.0298 15.6208C19.1128 13.709 19.7305 12.2389 20.3461 10.9849C20.502 10.6673 20.8658 10.0709 21.0215 9.77151C21.4824 8.88517 21.7892 8.41695 22.0526 7.60679C22.4207 6.47478 22.341 5.93861 22.2991 5.40503C22.5913 7.33388 21.4821 9.01113 20.6435 10.7194C20.0326 11.9638 19.3911 13.4755 19.3094 15.3595Z" fill="url(#paint6_radial_126_298)"/>
<path fill-rule="evenodd" clip-rule="evenodd" d="M15.458 22.0219C15.6086 22.3701 15.7508 22.6513 15.8406 23.0821L15.5079 23.1569C15.3695 22.6538 15.2625 22.296 15.071 21.8644C13.9245 19.1597 12.0846 17.7685 10.5811 16.748C12.3972 17.7251 14.2613 19.2545 15.458 22.0219Z" fill="url(#paint7_radial_126_298)"/>
<path fill-rule="evenodd" clip-rule="evenodd" d="M15.8602 23.4224C16.4954 26.3786 15.7867 30.1343 13.6982 33.785C15.4439 30.1669 16.2902 26.692 15.5854 23.4813L15.8602 23.4224Z" fill="url(#paint8_radial_126_298)"/>
<path fill-rule="evenodd" clip-rule="evenodd" d="M23.0681 23.1565C26.4923 24.4379 27.8108 27.2516 28.7963 29.5987C27.5792 27.1409 25.887 24.4267 22.9452 23.4192C20.7069 22.6526 18.8164 22.7435 15.5847 23.4769L15.5127 23.1565C18.9425 22.375 20.7357 22.2836 23.0681 23.1565Z" fill="url(#paint9_radial_126_298)"/>
</g>
<defs>
<filter id="filter0_f_126_298" x="-6.42627" y="-9.47803" width="51.5874" height="58.8345" filterUnits="userSpaceOnUse" color-interpolation-filters="sRGB">
<feFlood flood-opacity="0" result="BackgroundImageFix"/>
<feBlend mode="normal" in="SourceGraphic" in2="BackgroundImageFix" result="shape"/>
<feGaussianBlur stdDeviation="6.5" result="effect1_foregroundBlur_126_298"/>
</filter>
<radialGradient id="paint0_radial_126_298" cx="0" cy="0" r="1" gradientUnits="userSpaceOnUse" gradientTransform="translate(416 521.793) rotate(90) scale(339.695 441.724)">
<stop stop-opacity="0.35"/>
<stop offset="1" stop-opacity="0"/>
</radialGradient>
<radialGradient id="paint1_radial_126_298" cx="0" cy="0" r="1" gradientUnits="userSpaceOnUse" gradientTransform="translate(416) rotate(90) scale(832)">
<stop stop-color="white" stop-opacity="0.05"/>
<stop offset="1" stop-color="white" stop-opacity="0"/>
</radialGradient>
<radialGradient id="paint2_radial_126_298" cx="0" cy="0" r="1" gradientUnits="userSpaceOnUse" gradientTransform="translate(13.3397 33.3976) rotate(-104.574) scale(15.0079 10.0012)">
<stop stop-color="white" stop-opacity="0.4"/>
<stop offset="1" stop-opacity="0.1"/>
</radialGradient>
<radialGradient id="paint3_radial_126_298" cx="0" cy="0" r="1" gradientUnits="userSpaceOnUse" gradientTransform="translate(23.7581 36.7601) rotate(-115.936) scale(12.393 14.2297)">
<stop stop-color="white" stop-opacity="0.3"/>
<stop offset="1" stop-opacity="0.25"/>
</radialGradient>
<radialGradient id="paint4_radial_126_298" cx="0" cy="0" r="1" gradientUnits="userSpaceOnUse" gradientTransform="translate(26.131 27.2267) rotate(-82.4846) scale(24.6272 18.1947)">
<stop stop-color="white" stop-opacity="0.55"/>
<stop offset="1" stop-color="white" stop-opacity="0.05"/>
</radialGradient>
<radialGradient id="paint5_radial_126_298" cx="0" cy="0" r="1" gradientUnits="userSpaceOnUse" gradientTransform="translate(14.239 22.9029) rotate(-77.7214) scale(21.0303 14.3422)">
<stop stop-color="white" stop-opacity="0.83"/>
<stop offset="1" stop-color="white" stop-opacity="0.4"/>
</radialGradient>
<radialGradient id="paint6_radial_126_298" cx="0" cy="0" r="1" gradientUnits="userSpaceOnUse" gradientTransform="translate(22.91 11.3789) rotate(102.236) scale(10.9425 7.37896)">
<stop stop-color="white" stop-opacity="0"/>
<stop offset="1" stop-color="white" stop-opacity="0.17"/>
</radialGradient>
<radialGradient id="paint7_radial_126_298" cx="0" cy="0" r="1" gradientUnits="userSpaceOnUse" gradientTransform="translate(10.09 17.3057) rotate(45.3237) scale(8.06297 17.1733)">
<stop stop-color="white" stop-opacity="0.2"/>
<stop offset="1" stop-color="white" stop-opacity="0.44"/>
</radialGradient>
<radialGradient id="paint8_radial_126_298" cx="0" cy="0" r="1" gradientUnits="userSpaceOnUse" gradientTransform="translate(16.1775 21.1209) rotate(80.2016) scale(9.45031 20.0682)">
<stop stop-color="white" stop-opacity="0.12"/>
<stop offset="1" stop-color="white" stop-opacity="0.35"/>
</radialGradient>
<radialGradient id="paint9_radial_126_298" cx="0" cy="0" r="1" gradientUnits="userSpaceOnUse" gradientTransform="translate(28.7076 28.837) rotate(-152.297) scale(14.4 45.3158)">
<stop stop-color="white" stop-opacity="0.21"/>
<stop offset="0.46738" stop-color="white" stop-opacity="0.19"/>
<stop offset="1" stop-color="white" stop-opacity="0.29"/>
</radialGradient>
</defs>
</svg>
